<?xml version="1.0" encoding="UTF-8"?><svg id="Layer_1" xmlns="http://www.w3.org/2000/svg" width="294.62" height="78.26" viewBox="0 0 294.62 78.26"><path d="m13.32,45l-5.04,15.27H1.8L18.29,11.73h7.56l16.56,48.53h-6.7l-5.18-15.27H13.32Zm15.91-4.9l-4.75-13.97c-1.08-3.17-1.8-6.05-2.52-8.86h-.14c-.72,2.88-1.51,5.83-2.45,8.78l-4.75,14.04h14.62Z"/><path d="m48.46,60.26c.14-2.38.29-5.9.29-9V9.14h6.26v21.89h.14c2.23-3.89,6.26-6.41,11.88-6.41,8.64,0,14.76,7.2,14.69,17.79,0,12.46-7.85,18.65-15.62,18.65-5.04,0-9.07-1.94-11.67-6.55h-.22l-.29,5.76h-5.47Zm6.55-13.97c0,.79.14,1.58.29,2.3,1.22,4.39,4.9,7.42,9.5,7.42,6.62,0,10.58-5.4,10.58-13.39,0-6.98-3.6-12.96-10.37-12.96-4.32,0-8.35,2.95-9.65,7.78-.14.72-.36,1.58-.36,2.59v6.26Z"/><path d="m120.89,42.55c0,12.89-8.93,18.51-17.35,18.51-9.43,0-16.71-6.91-16.71-17.93,0-11.67,7.63-18.51,17.28-18.51s16.78,7.27,16.78,17.93Zm-27.65.36c0,7.63,4.39,13.39,10.58,13.39s10.58-5.69,10.58-13.54c0-5.91-2.95-13.39-10.44-13.39s-10.73,6.91-10.73,13.54Z"/><path d="m157.68,50.76c0,3.6.07,6.77.29,9.5h-5.62l-.36-5.69h-.14c-1.66,2.81-5.33,6.48-11.52,6.48-5.47,0-12.03-3.02-12.03-15.27v-20.38h6.34v19.3c0,6.62,2.02,11.09,7.78,11.09,4.25,0,7.2-2.95,8.35-5.76.36-.94.58-2.09.58-3.24v-21.39h6.34v25.35Z"/><path d="m175.46,15.4v10.01h9.07v4.82h-9.07v18.79c0,4.32,1.22,6.77,4.75,6.77,1.66,0,2.88-.22,3.67-.43l.29,4.75c-1.22.5-3.17.86-5.62.86-2.95,0-5.33-.94-6.84-2.66-1.8-1.87-2.45-4.97-2.45-9.07v-19.01h-5.4v-4.82h5.4v-8.35l6.19-1.66Z"/><path d="m247.32,38.95c-.36-6.77-.79-14.91-.72-20.95h-.22c-1.66,5.69-3.67,11.74-6.12,18.43l-8.57,23.55h-4.75l-7.85-23.11c-2.3-6.84-4.25-13.1-5.62-18.87h-.14c-.14,6.05-.5,14.19-.94,21.46l-1.3,20.81h-5.98l3.38-48.53h7.99l8.28,23.47c2.02,5.98,3.67,11.31,4.9,16.35h.22c1.22-4.9,2.95-10.22,5.11-16.35l8.64-23.47h7.99l3.02,48.53h-6.12l-1.22-21.31Z"/><path d="m267.69,43.99c.14,8.57,5.62,12.1,11.95,12.1,4.54,0,7.27-.79,9.65-1.8l1.08,4.54c-2.23,1.01-6.05,2.16-11.59,2.16-10.73,0-17.14-7.06-17.14-17.57s6.19-18.79,16.35-18.79c11.38,0,14.4,10.01,14.4,16.42,0,1.3-.14,2.3-.22,2.95h-24.48Zm18.58-4.54c.07-4.03-1.66-10.3-8.79-10.3-6.41,0-9.22,5.9-9.72,10.3h18.51Z"/></svg>