<?xml version="1.0" encoding="UTF-8"?><svg id="Layer_1" xmlns="http://www.w3.org/2000/svg" width="1920" height="1080" xmlns:xlink="http://www.w3.org/1999/xlink" viewBox="0 0 1920 1080"><defs><style>.cls-1{fill:url(#linear-gradient);}</style><linearGradient id="linear-gradient" x1="0" y1="540" x2="1920" y2="540" gradientUnits="userSpaceOnUse"><stop offset=".17" stop-color="#fff"/><stop offset=".23" stop-color="#fffbfc"/><stop offset=".29" stop-color="#fff0f4"/><stop offset=".35" stop-color="#ffdde7"/><stop offset=".4" stop-color="#ffc2d5"/><stop offset=".46" stop-color="#ffa0bd"/><stop offset=".51" stop-color="#ff76a1"/><stop offset=".56" stop-color="#ff457e"/><stop offset=".62" stop-color="#ff0d58"/><stop offset=".63" stop-color="#ff004f"/></linearGradient></defs><rect class="cls-1" width="1920" height="1080"/><path class="cls-1" d="m1919,1v1078H1V1h1918m1-1H0v1080h1920V0h0Z"/><path d="m650.62,153.75v1.71l.06,11.73v1.53h-33.78l.06-3.73.28-42.95-.22-20.4-.05-13.87-.06-2.44h25.31c10.34,0,18.17.49,23.51,1.47,5.33.98,9.81,2.73,13.43,5.25,4.87,3.38,8.64,8.08,11.3,14.11,2.03,4.6,3.04,9.43,3.04,14.48,0,5.46-1.14,10.67-3.43,15.64-2.73,5.95-6.6,10.52-11.6,13.71-5,3.2-10.79,4.8-17.36,4.8-2.44,0-5.92-.35-10.47-1.04Zm.06-64.27v4.09l-.22,40.81.11,15.21c2.92.86,6.7,1.28,11.35,1.28,4.17,0,8.12-.92,11.85-2.75,3.73-1.83,6.88-4.42,9.47-7.76,4.39-5.66,6.59-12.24,6.59-19.73s-2.18-13.58-6.53-19.37c-3.1-4.11-7.11-7.11-12.02-8.98-4.91-1.87-11.22-2.81-18.94-2.81h-1.66Z"/><path d="m740.05,82.83c5.83,0,11.46,1.36,16.89,4.09,7.97,4.03,14.07,10.24,18.27,18.63,3.36,6.72,5.04,14.03,5.04,21.93,0,6.35-1.27,12.5-3.82,18.45-3.8,8.88-9.73,15.62-17.78,20.22-5.91,3.38-12.11,5.07-18.61,5.07-6.87,0-13.36-1.92-19.49-5.74-8.16-5.05-13.97-12.14-17.44-21.26-2.14-5.58-3.21-11.34-3.21-17.29,0-7.45,1.68-14.56,5.04-21.32,4.13-8.31,10.17-14.52,18.11-18.63,5.28-2.73,10.95-4.11,17-4.15Zm-4.38,4.09l-.33,39.77.28,33.05.05,7.45c1.25.24,2.46.37,3.6.37,8.16,0,15.45-2.48,21.87-7.45,5.87-4.56,10.11-10.43,12.74-17.59,1.84-5.01,2.77-10.2,2.77-15.58,0-7.09-1.55-13.68-4.65-19.79-3.8-7.49-9.16-13.01-16.06-16.56-5.17-2.69-10.61-4.03-16.34-4.03-1.33,0-2.64.12-3.93.37Z"/><path d="m835.45,154.91c3.54,2.68,7.37,4.97,11.48,6.86,4.11,1.9,8.52,3.38,13.24,4.44,1.14.24,1.71.86,1.71,1.83,0,1.34-.85,2.02-2.54,2.02-3.87,0-9.31-1.87-16.31-5.62-5.82-3.14-12.5-7.98-20.02-14.54v2.5l.05,10.39v5.93h-33.72v-2.75l.11-19.92.17-23.83-.11-36.9h22.24c9.96,0,17.49.31,22.58.92s9.43,1.75,13,3.42c5.83,2.69,10.44,7.11,13.83,13.26,3.14,5.7,4.7,11.69,4.7,17.96,0,6.68-1.75,12.97-5.25,18.88-5.64,9.49-14.03,14.54-25.16,15.15Zm-5.25-3.79l2.66.06c7.59,0,14.01-2.34,19.24-7.03,3.32-2.93,5.86-6.6,7.63-11,1.66-4.03,2.49-8.15,2.49-12.34,0-7.13-2.1-13.5-6.3-19.12-3.21-4.36-7.23-7.43-12.05-9.22-4.83-1.79-11.63-2.75-20.4-2.87l-.5,40.93v11.06l.06,2.87c2.26,2.39,4.65,4.61,7.19,6.66Z"/><path d="m919.3,89.42l-.28,19.12-.17,18.14.17,42.03h-33.78l.33-48.69-.17-16.56-.17-14.05-7.31.18-10.47.24-1.55.06c-1.77,0-2.66-.73-2.66-2.2,0-1.3.52-2.04,1.55-2.2.29-.08,1.2-.14,2.71-.18h67.94c2.36.04,3.77.16,4.21.37.74.33,1.11,1.02,1.11,2.08,0,1.39-.94,2.08-2.82,2.08l-4.82-.18-12.74-.24h-1.11Z"/><path d="m981.26,112.09l-.11,14.78.33,39.04v2.81h-33.89l.44-45.39-.44-38h58.7c2.66,0,4.15.06,4.49.18.85.24,1.27.92,1.27,2.05,0,1.41-.81,2.11-2.44,2.11h-.39l-27.74-.37-.22,18.94,6.04.06,19.38-.37,4.26-.06c1.55,0,2.58.14,3.07.43.5.29.75.86.75,1.71,0,1.59-1.22,2.38-3.66,2.38l-4.37-.12-25.47-.18Z"/><path d="m1058.07,82.83c5.83,0,11.46,1.36,16.89,4.09,7.97,4.03,14.07,10.24,18.27,18.63,3.36,6.72,5.04,14.03,5.04,21.93,0,6.35-1.27,12.5-3.82,18.45-3.8,8.88-9.73,15.62-17.78,20.22-5.91,3.38-12.11,5.07-18.61,5.07-6.87,0-13.36-1.92-19.49-5.74-8.16-5.05-13.97-12.14-17.44-21.26-2.14-5.58-3.21-11.34-3.21-17.29,0-7.45,1.68-14.56,5.04-21.32,4.13-8.31,10.17-14.52,18.11-18.63,5.28-2.73,10.94-4.11,17-4.15Zm-4.38,4.09l-.33,39.77.28,33.05.06,7.45c1.25.24,2.46.37,3.6.37,8.16,0,15.45-2.48,21.87-7.45,5.87-4.56,10.11-10.43,12.74-17.59,1.85-5.01,2.77-10.2,2.77-15.58,0-7.09-1.55-13.68-4.65-19.79-3.8-7.49-9.16-13.01-16.06-16.56-5.17-2.69-10.61-4.03-16.33-4.03-1.33,0-2.64.12-3.93.37Z"/><path d="m1141.41,85.33l-.22,12.77-.22,20.34.06,14.85.22,31.46,3.98.06,23.66-.43,4.31-.06c2.17,0,3.26.72,3.26,2.17,0,1.28-.59,1.98-1.77,2.11-.26.04-1.11.08-2.54.12h-64.79l.17-23.21.11-14.23.11-16.13-.22-24.56.06-5.25h33.83Z"/><path d="m1217.1,85.33v4.28l-.33,33.48.33,45.64h-33.89l.33-49.91-.39-30.48.06-2.99h33.89Z"/><path d="m1266.72,82.83c5.83,0,11.46,1.36,16.89,4.09,7.97,4.03,14.07,10.24,18.27,18.63,3.36,6.72,5.04,14.03,5.04,21.93,0,6.35-1.27,12.5-3.82,18.45-3.8,8.88-9.73,15.62-17.78,20.22-5.91,3.38-12.11,5.07-18.61,5.07-6.87,0-13.36-1.92-19.49-5.74-8.16-5.05-13.97-12.14-17.44-21.26-2.14-5.58-3.21-11.34-3.21-17.29,0-7.45,1.68-14.56,5.04-21.32,4.13-8.31,10.17-14.52,18.11-18.63,5.28-2.73,10.94-4.11,17-4.15Zm-4.38,4.09l-.33,39.77.28,33.05.06,7.45c1.25.24,2.46.37,3.6.37,8.16,0,15.45-2.48,21.87-7.45,5.87-4.56,10.11-10.43,12.74-17.59,1.85-5.01,2.77-10.2,2.77-15.58,0-7.09-1.55-13.68-4.65-19.79-3.8-7.49-9.16-13.01-16.06-16.56-5.17-2.69-10.61-4.03-16.33-4.03-1.33,0-2.64.12-3.93.37Z"/><path d="m819.11,316.08c1.42,1.02,2.49,2.12,3.19,3.33.7,1.2,1.05,2.5,1.05,3.88,0,2.25-.88,4.32-2.64,6.21-2.16,2.34-5.4,3.61-9.73,3.81-2.39.12-5.76.18-10.09.18h-14.69l.03-1.38.06-5.68.09-11.19-.12-12.19-.06-9.55h15.91c3.98,0,6.71.06,8.21.19,1.49.13,3.03.44,4.61.92,1.68.53,3.25,1.3,4.72,2.31,1.46,1.02,2.6,2.13,3.41,3.34,1.27,1.89,1.9,4.01,1.9,6.36,0,2.11-.52,4.01-1.57,5.71s-2.47,2.95-4.27,3.75Zm-2.4.76c-.85.18-1.64.26-2.37.26-1.56,0-2.82-.25-3.78-.76-.96-.51-1.44-1.17-1.44-1.99,0-.45.16-.67.48-.67.24,0,.56.1.98.29,1.36.68,2.85,1.03,4.45,1.03,2.91,0,5.1-1.13,6.59-3.4.95-1.43,1.42-3.06,1.42-4.89,0-2.79-1.1-5.19-3.29-7.18-1.56-1.45-3.43-2.49-5.59-3.13-2.17-.64-4.88-.97-8.15-.97h-1.63l-.18,17.58.18,18.54,2.67.03c2.95,0,5.24-.16,6.89-.48,1.64-.32,3.01-.87,4.1-1.66,2.26-1.64,3.38-3.71,3.38-6.21,0-1.27-.39-2.44-1.17-3.5-.78-1.06-1.95-2.03-3.52-2.89Z"/><path d="m849.04,291.09l23.73,42.39h-20.58l-2.87-5.36h-9.94l-8.75-.03-1.48-.03-1.95,3.58c-.57,1.08-.97,1.74-1.2,2.01-.23.26-.51.39-.85.39-.68,0-1.02-.29-1.02-.88,0-.25.19-.73.58-1.42.39-.69,1.74-2.97,4.05-6.84l17.97-29.85,2.32-3.96Zm-9.23,19.25l-5.18,8.61-4.15,7.09,8.85.12,8.88-.12-8.4-15.7Z"/><path d="m875.05,326.68c.36,0,.77.26,1.25.79,1.48,1.6,3.3,2.89,5.45,3.85,2.15.97,4.27,1.45,6.37,1.45,2.31,0,3.47-.69,3.47-2.08,0-.88-.41-1.87-1.22-2.97-.81-1.1-2.75-3.29-5.82-6.55-3.86-4.12-6.43-7.18-7.72-9.17-1.7-2.64-2.55-5.15-2.55-7.53,0-3.59,1.62-6.53,4.87-8.82,3.19-2.25,7.11-3.37,11.78-3.37,3.26,0,6.26.65,8.99,1.96,1.03.51,1.91,1.09,2.66,1.76.74.66,1.11,1.22,1.11,1.67,0,.22-.1.42-.31.6-.21.19-.42.28-.64.28-.34,0-.83-.3-1.48-.91-1.07-1-2.47-1.82-4.21-2.48-1.74-.65-3.41-.98-5.02-.98-.99,0-1.8.21-2.42.63-.62.42-.94.96-.94,1.63,0,.8.38,1.78,1.16,2.93.77,1.15,2.08,2.69,3.92,4.6,5.82,6.11,9.38,10.23,10.69,12.36,1.37,2.25,2.05,4.41,2.05,6.5,0,1.78-.48,3.46-1.45,5.04-.97,1.58-2.31,2.88-4.04,3.9-3.28,1.93-7.29,2.9-12.02,2.9-4.35,0-8.18-1.11-11.49-3.34-2.31-1.56-3.47-2.78-3.47-3.66,0-.25.1-.48.31-.69.21-.21.45-.31.73-.31Z"/><path d="m929.89,293.49v2.05l-.18,16.05.18,21.88h-18.16l.18-23.94-.21-14.62.03-1.44h18.16Z"/><path d="m954.17,294.28l-.18,20.77.18,17.64c1.03.14,1.88.21,2.55.21,1.94,0,3.92-.34,5.96-1.03,2.04-.68,3.83-1.61,5.39-2.78,1.01-.76,2.05-1.78,3.13-3.05,1.08-1.27,1.94-2.51,2.59-3.72.38-.7.78-1.05,1.22-1.05.65,0,.98.27.98.82,0,.59-.49,1.58-1.47,2.97-.98,1.4-2.05,2.65-3.22,3.76-2.53,2.4-5.51,4.07-8.93,5.01-2.06.57-4.04.85-5.94.85-2.77,0-5.55-.59-8.34-1.76-4.47-1.86-7.88-4.79-10.21-8.82-1.94-3.34-2.91-6.88-2.91-10.63s1.01-7.44,3.03-10.84c2.16-3.61,5.2-6.38,9.14-8.29,2.87-1.37,5.96-2.05,9.29-2.05,5.7,0,10.62,1.9,14.78,5.71,1.98,1.82,2.97,3.12,2.97,3.93,0,.22-.1.41-.3.59-.2.18-.42.26-.65.26-.39,0-.87-.38-1.42-1.14-1.7-2.32-3.94-4.16-6.73-5.52-2.79-1.36-5.73-2.04-8.83-2.04-.73,0-1.42.07-2.07.21Z"/><path d="m1042.69,314.5c3.19-7.55,5.81-14.07,7.86-19.55.34-.9.61-1.46.8-1.68.2-.22.54-.34,1.01-.34.4,0,.74.1,1.03.29.29.2.43.43.43.7,0,.25-.77,2.11-2.31,5.57l-1.72,3.81-14.74,32.99-7.33-13.61-5.76-10.12-4.54,8.19-6.91,12.79-1.42,2.75-5.73-13.95-5.05-12.1c-2.5-6.07-4.9-11.53-7.22-16.38l-.18-.38h18.57l2.55,6.44c2.61,6.44,4.68,11.27,6.21,14.49l5.5-9.96,2.02-3.75,1.37-2.52,2.29-4.22c.36-.68.69-1.3,1.01-1.84l4.4,8.46c2.53,4.78,5.16,9.41,7.87,13.9Z"/><path d="m1074.51,306.32c-.04.9-.06,1.99-.06,3.28v1.76l.21,20.21,10.06-.1,7.12-.08c1.17,0,1.75.35,1.75,1.04,0,.58-.3.91-.89.98-.14.02-.96.04-2.46.06h-33.71l.03-1.52.03-9.79.12-10.49-.24-18.19h31.46c1.41,0,2.21.03,2.4.09.46.12.68.44.68.98,0,.67-.44,1.01-1.31,1.01h-.21l-14.87-.18-.12,9.08,3.24.03,10.39-.18,2.29-.03c.83,0,1.38.07,1.65.21s.4.42.4.83c0,.77-.65,1.16-1.96,1.16l-2.34-.07-13.65-.11Z"/><path d="m1130.07,316.08c1.42,1.02,2.49,2.12,3.19,3.33.7,1.2,1.05,2.5,1.05,3.88,0,2.25-.88,4.32-2.64,6.21-2.16,2.34-5.4,3.61-9.73,3.81-2.39.12-5.76.18-10.09.18h-14.69l.03-1.38.06-5.68.09-11.19-.12-12.19-.06-9.55h15.91c3.98,0,6.71.06,8.21.19,1.49.13,3.03.44,4.62.92,1.68.53,3.25,1.3,4.72,2.31,1.46,1.02,2.6,2.13,3.41,3.34,1.27,1.89,1.9,4.01,1.9,6.36,0,2.11-.53,4.01-1.57,5.71-1.05,1.7-2.47,2.95-4.27,3.75Zm-2.4.76c-.85.18-1.64.26-2.38.26-1.56,0-2.82-.25-3.78-.76-.96-.51-1.44-1.17-1.44-1.99,0-.45.16-.67.47-.67.24,0,.56.1.98.29,1.37.68,2.85,1.03,4.45,1.03,2.91,0,5.1-1.13,6.59-3.4.95-1.43,1.42-3.06,1.42-4.89,0-2.79-1.1-5.19-3.29-7.18-1.56-1.45-3.43-2.49-5.6-3.13-2.17-.64-4.88-.97-8.15-.97h-1.63l-.18,17.58.18,18.54,2.67.03c2.95,0,5.24-.16,6.88-.48s3.01-.87,4.1-1.66c2.26-1.64,3.38-3.71,3.38-6.21,0-1.27-.39-2.44-1.17-3.5-.78-1.06-1.95-2.03-3.52-2.89Z"/><path d="m846.95,434.86c1.41,1.02,2.46,2.12,3.15,3.33.69,1.2,1.04,2.5,1.04,3.88,0,2.25-.87,4.32-2.61,6.21-2.13,2.34-5.33,3.61-9.61,3.81-2.36.12-5.68.18-9.96.18h-14.5l.03-1.38.06-5.68.09-11.19-.12-12.19-.06-9.55h15.7c3.93,0,6.63.06,8.1.19,1.47.13,2.99.44,4.56.92,1.66.53,3.21,1.3,4.66,2.31,1.45,1.02,2.57,2.13,3.37,3.34,1.25,1.89,1.88,4.01,1.88,6.36,0,2.11-.52,4.01-1.55,5.71-1.04,1.7-2.44,2.95-4.22,3.75Zm-2.37.76c-.84.18-1.62.26-2.34.26-1.54,0-2.79-.25-3.74-.76-.95-.51-1.42-1.17-1.42-1.99,0-.45.16-.67.47-.67.23,0,.56.1.97.29,1.35.68,2.81,1.03,4.39,1.03,2.87,0,5.04-1.13,6.5-3.4.94-1.43,1.41-3.06,1.41-4.89,0-2.79-1.08-5.19-3.25-7.18-1.54-1.45-3.38-2.49-5.52-3.13s-4.82-.97-8.04-.97h-1.61l-.18,17.58.18,18.54,2.64.03c2.91,0,5.18-.16,6.8-.48,1.62-.32,2.97-.87,4.04-1.66,2.23-1.64,3.34-3.71,3.34-6.21,0-1.27-.39-2.44-1.16-3.5-.77-1.06-1.93-2.03-3.47-2.89Z"/><path d="m876.49,409.87l23.42,42.39h-20.32l-2.83-5.36h-9.81l-8.64-.03-1.46-.03-1.93,3.58c-.56,1.08-.96,1.74-1.19,2.01s-.51.39-.84.39c-.67,0-1-.29-1-.88,0-.25.19-.73.57-1.42.38-.69,1.71-2.97,4-6.84l17.73-29.85,2.29-3.96Zm-9.11,19.25l-5.12,8.61-4.09,7.09,8.74.12,8.77-.12-8.29-15.7Z"/><path d="m902.17,445.47c.35,0,.76.26,1.23.79,1.46,1.6,3.26,2.89,5.38,3.85,2.12.97,4.21,1.45,6.28,1.45,2.29,0,3.43-.69,3.43-2.08,0-.88-.4-1.87-1.2-2.97-.8-1.1-2.71-3.29-5.74-6.55-3.81-4.12-6.35-7.18-7.62-9.17-1.68-2.64-2.52-5.15-2.52-7.53,0-3.59,1.6-6.53,4.8-8.82,3.14-2.25,7.02-3.37,11.63-3.37,3.22,0,6.18.65,8.88,1.96,1.02.51,1.89,1.09,2.62,1.76.73.66,1.1,1.22,1.1,1.67,0,.22-.1.42-.31.6-.21.19-.42.28-.63.28-.33,0-.82-.3-1.46-.91-1.05-1-2.44-1.82-4.16-2.48-1.72-.65-3.37-.98-4.95-.98-.98,0-1.77.21-2.39.63s-.92.96-.92,1.63c0,.8.38,1.78,1.14,2.93.76,1.15,2.05,2.69,3.87,4.6,5.74,6.11,9.26,10.23,10.55,12.36,1.35,2.25,2.02,4.41,2.02,6.5,0,1.78-.48,3.46-1.44,5.04-.96,1.58-2.29,2.88-3.98,3.9-3.24,1.93-7.2,2.9-11.87,2.9-4.3,0-8.08-1.11-11.34-3.34-2.29-1.56-3.43-2.78-3.43-3.66,0-.25.1-.48.31-.69s.44-.31.72-.31Z"/><path d="m956.31,412.27v2.05l-.18,16.05.18,21.88h-17.93l.18-23.94-.21-14.62.03-1.44h17.93Z"/><path d="m980.28,413.06l-.18,20.77.18,17.64c1.01.14,1.85.21,2.52.21,1.91,0,3.87-.34,5.88-1.03,2.01-.68,3.78-1.61,5.32-2.78,1-.76,2.02-1.78,3.09-3.05,1.06-1.27,1.92-2.51,2.56-3.72.37-.7.77-1.05,1.2-1.05.64,0,.97.27.97.82,0,.59-.48,1.58-1.45,2.97-.97,1.4-2.03,2.65-3.18,3.76-2.5,2.4-5.44,4.07-8.82,5.01-2.03.57-3.98.85-5.86.85-2.74,0-5.48-.59-8.23-1.76-4.41-1.86-7.77-4.79-10.08-8.82-1.92-3.34-2.87-6.88-2.87-10.63s1-7.44,2.99-10.84c2.13-3.61,5.14-6.38,9.02-8.29,2.83-1.37,5.89-2.05,9.17-2.05,5.62,0,10.49,1.9,14.59,5.71,1.95,1.82,2.93,3.12,2.93,3.93,0,.22-.1.41-.29.59s-.41.26-.64.26c-.39,0-.86-.38-1.4-1.14-1.68-2.32-3.89-4.16-6.64-5.52-2.75-1.36-5.66-2.04-8.72-2.04-.72,0-1.4.07-2.05.21Z"/><path d="m1038.37,412.27l-.12,15.18-.05,15.94.09,8.12c1,.08,1.87.12,2.61.12,6.86,0,11.45-1.59,13.77-4.78,1.19-1.64,1.98-3.97,2.36-6.99s.57-8.5.57-16.45l-.08-7.76-.1-2.4c0-1.02.41-1.52,1.24-1.52.73,0,1.1.49,1.1,1.46,0,.57-.03,1.34-.09,2.31l-.23,11.69c-.08,4.92-.17,8.27-.26,10.03-.1,1.77-.29,3.42-.59,4.97-.61,3.18-2,5.72-4.19,7.62-2.79,2.44-7.58,3.66-14.36,3.66-5.94,0-10.42-.8-13.45-2.4-2.38-1.23-4.07-3.31-5.07-6.24-.45-1.35-.71-2.73-.79-4.16-.08-1.43-.13-5.77-.15-13.04l-.12-15.35h17.9Z"/><path d="m1093.34,428.79l.62.94c3.94,6.27,6.67,10.55,8.19,12.83,1.52,2.29,3.78,5.52,6.79,9.7h-20.84l-10.14-16.49c-3.16,3.75-6.83,8.52-10.98,14.32-.78,1.07-1.37,1.8-1.76,2.17-.39.37-.78.56-1.17.56-.7,0-1.05-.32-1.05-.97,0-.25.07-.5.22-.75.15-.24.68-.94,1.6-2.1l1.03-1.26,10.96-13.81-14.04-21.67h20.57l8.86,14.69c2.09-2.56,5.07-6.49,8.92-11.8,1.13-1.58,1.87-2.55,2.21-2.91s.71-.54,1.1-.54c.31,0,.59.11.82.32.23.22.35.47.35.76,0,.37-.16.78-.48,1.23-.32.45-1.44,1.85-3.35,4.22l-8.4,10.54Z"/><path d="m707.33,552.02c1.41,1.02,2.46,2.12,3.15,3.33.69,1.2,1.04,2.5,1.04,3.88,0,2.25-.87,4.32-2.61,6.21-2.13,2.34-5.33,3.61-9.61,3.81-2.36.12-5.68.18-9.96.18h-14.5l.03-1.38.06-5.68.09-11.19-.12-12.19-.06-9.55h15.7c3.93,0,6.63.06,8.1.19,1.47.13,2.99.44,4.56.92,1.66.53,3.21,1.3,4.66,2.31,1.45,1.02,2.57,2.13,3.37,3.34,1.25,1.89,1.88,4.01,1.88,6.36,0,2.11-.52,4.01-1.55,5.71-1.04,1.7-2.44,2.95-4.22,3.75Zm-2.37.76c-.84.18-1.62.26-2.34.26-1.54,0-2.79-.25-3.74-.76-.95-.51-1.42-1.17-1.42-1.99,0-.45.16-.67.47-.67.23,0,.56.1.97.29,1.35.68,2.81,1.03,4.39,1.03,2.87,0,5.04-1.13,6.5-3.4.94-1.42,1.41-3.06,1.41-4.89,0-2.79-1.08-5.19-3.25-7.18-1.54-1.45-3.38-2.49-5.52-3.13s-4.82-.97-8.04-.97h-1.61l-.18,17.58.18,18.54,2.64.03c2.91,0,5.18-.16,6.8-.48,1.62-.32,2.97-.87,4.04-1.66,2.23-1.64,3.34-3.71,3.34-6.21,0-1.27-.39-2.44-1.16-3.5-.77-1.06-1.93-2.03-3.47-2.89Z"/><path d="m736.88,527.03l23.42,42.39h-20.32l-2.83-5.36h-9.81l-8.64-.03-1.46-.03-1.93,3.58c-.56,1.08-.96,1.75-1.19,2-.23.26-.51.39-.84.39-.67,0-1-.29-1-.88,0-.25.19-.73.57-1.42.38-.69,1.71-2.97,4-6.84l17.73-29.85,2.29-3.96Zm-9.11,19.25l-5.12,8.61-4.09,7.09,8.74.12,8.77-.12-8.29-15.7Z"/><path d="m762.55,562.62c.35,0,.76.26,1.23.79,1.46,1.6,3.26,2.89,5.38,3.85,2.12.97,4.21,1.45,6.28,1.45,2.29,0,3.43-.69,3.43-2.08,0-.88-.4-1.87-1.2-2.97-.8-1.1-2.71-3.29-5.74-6.55-3.81-4.12-6.35-7.18-7.62-9.17-1.68-2.64-2.52-5.15-2.52-7.53,0-3.59,1.6-6.53,4.8-8.82,3.14-2.25,7.02-3.37,11.63-3.37,3.22,0,6.18.65,8.88,1.96,1.02.51,1.89,1.09,2.62,1.76.73.66,1.1,1.22,1.1,1.67,0,.22-.1.42-.31.6-.21.19-.42.28-.63.28-.33,0-.82-.3-1.46-.91-1.05-1-2.44-1.82-4.16-2.48-1.72-.65-3.37-.98-4.95-.98-.98,0-1.77.21-2.39.63s-.92.96-.92,1.63c0,.8.38,1.78,1.14,2.93.76,1.15,2.05,2.69,3.87,4.6,5.74,6.11,9.26,10.23,10.55,12.36,1.35,2.25,2.02,4.41,2.02,6.5,0,1.78-.48,3.46-1.44,5.04-.96,1.58-2.29,2.88-3.98,3.9-3.24,1.93-7.2,2.9-11.87,2.9-4.3,0-8.08-1.11-11.34-3.34-2.29-1.56-3.43-2.78-3.43-3.66,0-.25.1-.48.31-.69s.44-.31.72-.31Z"/><path d="m816.69,529.43v2.05l-.18,16.05.18,21.88h-17.93l.18-23.94-.21-14.62.03-1.44h17.93Z"/><path d="m840.66,530.22l-.18,20.77.18,17.64c1.01.14,1.85.21,2.52.21,1.91,0,3.87-.34,5.88-1.03,2.01-.68,3.78-1.61,5.33-2.78.99-.76,2.02-1.78,3.09-3.05,1.06-1.27,1.92-2.51,2.56-3.72.37-.7.77-1.05,1.2-1.05.64,0,.97.27.97.82,0,.59-.48,1.58-1.45,2.97s-2.03,2.65-3.18,3.76c-2.5,2.4-5.44,4.07-8.82,5.01-2.03.57-3.98.85-5.86.85-2.73,0-5.48-.59-8.23-1.76-4.41-1.86-7.77-4.79-10.08-8.82-1.91-3.34-2.87-6.88-2.87-10.63s1-7.44,2.99-10.84c2.13-3.61,5.14-6.38,9.02-8.29,2.83-1.37,5.89-2.05,9.17-2.05,5.62,0,10.49,1.9,14.59,5.71,1.95,1.82,2.93,3.12,2.93,3.93,0,.22-.1.41-.29.59-.19.18-.41.26-.64.26-.39,0-.86-.38-1.4-1.14-1.68-2.32-3.89-4.16-6.64-5.52-2.75-1.36-5.66-2.04-8.72-2.04-.72,0-1.4.07-2.05.21Z"/><path d="m901.64,527.03l23.42,42.39h-20.32l-2.83-5.36h-9.81l-8.64-.03-1.46-.03-1.93,3.58c-.56,1.08-.96,1.75-1.19,2-.23.26-.51.39-.84.39-.67,0-1-.29-1-.88,0-.25.19-.73.57-1.42s1.71-2.97,4-6.84l17.74-29.85,2.29-3.96Zm-9.11,19.25l-5.12,8.61-4.09,7.09,8.74.12,8.77-.12-8.29-15.7Z"/><path d="m963.65,548.9v-4.9l-.06-7.77-.03-3.55-.03-2.23c0-1.06.36-1.58,1.08-1.58.43,0,.73.12.89.37.17.24.25.71.25,1.39v.41c-.02.41-.03,1.08-.03,2.02l-.12,9.87-.09,9.05.08,9.52.1,9.55c-4.02-2.52-9.91-6-17.67-10.45s-14.03-7.94-18.84-10.48l.03,1.44.29,15.12.03,2.02c0,.84-.39,1.26-1.17,1.26s-1.2-.52-1.2-1.55l.03-2.05.03-3.31.12-15.03-.23-20.24c7.92,4.91,20.09,11.94,36.53,21.11Z"/><path d="m989.81,529.43v2.05l-.18,16.05.18,21.88h-17.93l.18-23.94-.21-14.62.03-1.44h17.93Z"/><path d="m1037.23,528.05l6.38,21.83,2.9,9.67,2.6,8.76.35,1.11h-17.81l-5.61-20.71-12.11,18.19-12.41-17.29c-1.2,4.22-2.5,9.4-3.92,15.53-.51,2.34-.88,3.74-1.1,4.18-.22.44-.68.66-1.36.66-.86,0-1.29-.29-1.29-.88,0-.18.27-1.16.82-2.96l1.82-6.24,3.17-10.78,6.19-21.06,16.04,23.25,15.34-23.25Z"/><path d="m1074.29,527.03l23.42,42.39h-20.32l-2.83-5.36h-9.81l-8.64-.03-1.46-.03-1.93,3.58c-.56,1.08-.96,1.75-1.19,2-.23.26-.51.39-.84.39-.67,0-1-.29-1-.88,0-.25.19-.73.57-1.42s1.71-2.97,4-6.84l17.74-29.85,2.29-3.96Zm-9.11,19.25l-5.12,8.61-4.09,7.09,8.74.12,8.77-.12-8.29-15.7Z"/><path d="m1122.58,531.39l-.15,9.17-.09,8.7.09,20.16h-17.87l.18-23.35-.09-7.94-.09-6.74-3.87.09-5.54.12-.82.03c-.94,0-1.41-.35-1.41-1.05,0-.62.27-.98.82-1.05.16-.04.63-.07,1.44-.09h35.95c1.25.02,1.99.08,2.23.18.39.16.59.49.59,1,0,.66-.5,1-1.49,1l-2.55-.09-6.74-.12h-.59Z"/><path d="m1155.48,529.43v2.05l-.18,16.05.18,21.88h-17.93l.18-23.94-.21-14.62.03-1.44h17.93Z"/><path d="m1181.73,528.23c3.09,0,6.06.65,8.94,1.96,4.22,1.93,7.44,4.91,9.67,8.94,1.78,3.22,2.67,6.73,2.67,10.52,0,3.05-.67,6-2.02,8.85-2.01,4.26-5.15,7.49-9.4,9.7-3.12,1.62-6.41,2.43-9.84,2.43-3.63,0-7.07-.92-10.31-2.75-4.32-2.42-7.39-5.82-9.23-10.2-1.13-2.68-1.7-5.44-1.7-8.29,0-3.57.89-6.98,2.67-10.22,2.19-3.98,5.38-6.96,9.58-8.94,2.79-1.31,5.79-1.97,8.99-1.99Zm-2.31,1.96l-.18,19.07.15,15.85.03,3.57c.66.12,1.3.18,1.9.18,4.32,0,8.17-1.19,11.57-3.57,3.11-2.19,5.35-5,6.74-8.44.98-2.4,1.46-4.89,1.46-7.47,0-3.4-.82-6.56-2.46-9.49-2.01-3.59-4.84-6.24-8.5-7.94-2.73-1.29-5.62-1.93-8.64-1.93-.7,0-1.4.06-2.08.18Z"/><path d="m1243.73,548.9v-4.9l-.06-7.77-.03-3.55-.03-2.23c0-1.06.36-1.58,1.08-1.58.43,0,.73.12.89.37.17.24.25.71.25,1.39v.41c-.02.41-.03,1.08-.03,2.02l-.12,9.87-.09,9.05.08,9.52.1,9.55c-4.02-2.52-9.91-6-17.67-10.45s-14.03-7.94-18.84-10.48l.03,1.44.29,15.12.03,2.02c0,.84-.39,1.26-1.17,1.26s-1.2-.52-1.2-1.55l.03-2.05.03-3.31.12-15.03-.23-20.24c7.92,4.91,20.09,11.94,36.53,21.11Z"/><path d="m747.77,691.39c1.41,1.02,2.46,2.12,3.15,3.33s1.04,2.49,1.04,3.88c0,2.25-.87,4.32-2.61,6.21-2.13,2.34-5.33,3.61-9.61,3.81-2.36.12-5.68.18-9.96.18h-14.5l.03-1.38.06-5.68.09-11.19-.12-12.19-.06-9.55h15.7c3.93,0,6.63.06,8.1.19s2.99.43,4.56.92c1.66.53,3.21,1.3,4.66,2.31,1.45,1.02,2.57,2.13,3.37,3.34,1.25,1.89,1.88,4.01,1.88,6.36,0,2.11-.52,4.01-1.55,5.71s-2.44,2.95-4.22,3.75Zm-2.37.76c-.84.18-1.62.26-2.34.26-1.54,0-2.79-.25-3.74-.76-.95-.51-1.42-1.17-1.42-1.99,0-.45.16-.67.47-.67.23,0,.56.1.97.29,1.35.68,2.81,1.03,4.39,1.03,2.87,0,5.04-1.13,6.5-3.4.94-1.42,1.41-3.06,1.41-4.89,0-2.79-1.08-5.19-3.25-7.18-1.54-1.45-3.38-2.49-5.52-3.13s-4.82-.97-8.04-.97h-1.61l-.18,17.58.18,18.54,2.64.03c2.91,0,5.18-.16,6.8-.48s2.97-.88,4.04-1.66c2.23-1.64,3.34-3.71,3.34-6.21,0-1.27-.39-2.44-1.16-3.5s-1.93-2.03-3.47-2.89Z"/><path d="m777.32,666.4l23.42,42.39h-20.32l-2.83-5.36h-9.81l-8.64-.03-1.46-.03-1.93,3.58c-.56,1.08-.96,1.75-1.19,2.01-.23.26-.51.39-.84.39-.67,0-1-.29-1-.88,0-.25.19-.73.57-1.42.38-.69,1.71-2.97,4-6.84l17.74-29.85,2.29-3.96Zm-9.11,19.25l-5.12,8.61-4.09,7.09,8.74.12,8.77-.12-8.29-15.7Z"/><path d="m803,701.99c.35,0,.76.26,1.23.79,1.46,1.6,3.26,2.89,5.38,3.85s4.21,1.45,6.28,1.45c2.29,0,3.43-.69,3.43-2.08,0-.88-.4-1.87-1.2-2.97-.8-1.1-2.71-3.29-5.74-6.55-3.81-4.12-6.35-7.18-7.62-9.17-1.68-2.64-2.52-5.15-2.52-7.53,0-3.59,1.6-6.53,4.8-8.82,3.14-2.25,7.02-3.37,11.63-3.37,3.22,0,6.18.66,8.88,1.96,1.02.51,1.89,1.09,2.62,1.76.73.66,1.1,1.22,1.1,1.67,0,.22-.1.42-.31.6s-.42.28-.63.28c-.33,0-.82-.3-1.46-.91-1.05-1-2.44-1.82-4.16-2.47s-3.37-.98-4.95-.98c-.98,0-1.77.21-2.39.63s-.92.96-.92,1.63c0,.8.38,1.78,1.14,2.93s2.05,2.69,3.87,4.6c5.74,6.11,9.26,10.23,10.55,12.36,1.35,2.25,2.02,4.41,2.02,6.5,0,1.78-.48,3.46-1.44,5.04s-2.29,2.88-3.98,3.9c-3.24,1.93-7.2,2.9-11.87,2.9-4.3,0-8.08-1.11-11.34-3.34-2.29-1.56-3.43-2.78-3.43-3.66,0-.25.1-.48.31-.69s.44-.31.72-.31Z"/><path d="m857.14,668.8v2.05l-.18,16.05.18,21.88h-17.93l.18-23.94-.21-14.62.03-1.44h17.93Z"/><path d="m881.1,669.59l-.18,20.77.18,17.64c1.01.14,1.85.21,2.52.21,1.91,0,3.87-.34,5.88-1.03,2.01-.68,3.78-1.61,5.32-2.78,1-.76,2.02-1.78,3.09-3.05,1.06-1.27,1.92-2.51,2.56-3.72.37-.7.77-1.05,1.2-1.05.64,0,.96.27.96.82,0,.59-.48,1.58-1.45,2.97s-2.03,2.65-3.18,3.76c-2.5,2.4-5.44,4.07-8.82,5.01-2.03.57-3.98.85-5.86.85-2.73,0-5.48-.59-8.23-1.76-4.41-1.86-7.77-4.79-10.08-8.82-1.91-3.34-2.87-6.88-2.87-10.63s1-7.44,2.99-10.84c2.13-3.61,5.14-6.38,9.02-8.29,2.83-1.37,5.89-2.05,9.17-2.05,5.62,0,10.49,1.9,14.59,5.71,1.95,1.82,2.93,3.12,2.93,3.93,0,.22-.1.41-.29.59-.2.18-.41.26-.64.26-.39,0-.86-.38-1.4-1.14-1.68-2.32-3.89-4.16-6.64-5.52s-5.66-2.04-8.72-2.04c-.72,0-1.4.07-2.05.21Z"/><path d="m939.23,668.8v2.05l-.18,16.05.18,21.88h-17.93l.18-23.94-.21-14.62.03-1.44h17.93Z"/><path d="m981.97,688.27v-4.9l-.06-7.77-.03-3.55-.03-2.23c0-1.06.36-1.58,1.08-1.58.43,0,.73.12.89.37s.25.71.25,1.39v.41c-.02.41-.03,1.08-.03,2.02l-.12,9.87-.09,9.05.08,9.52.1,9.55c-4.02-2.52-9.91-6-17.67-10.45s-14.03-7.94-18.84-10.48l.03,1.44.29,15.12.03,2.02c0,.84-.39,1.26-1.17,1.26s-1.2-.52-1.2-1.55l.03-2.05.03-3.31.12-15.03-.23-20.24c7.92,4.91,20.09,11.95,36.53,21.11Z"/><path d="m990.21,668.8h15.41c4.02,0,7.05.2,9.08.59,5.02.96,9.07,3.63,12.16,8.03,2.42,3.46,3.63,7.27,3.63,11.43s-1.25,8.1-3.75,11.57c-3.01,4.2-6.93,6.81-11.78,7.82-1.25.25-2.36.41-3.34.47s-3.12.09-6.45.09h-14.88l.09-19.34-.18-20.65Zm17.93,1.88l-.18,23.55.18,12.69c2.62-.02,4.5-.12,5.64-.31s2.46-.6,3.94-1.25c3.5-1.5,6.24-3.93,8.23-7.27,1.74-2.87,2.61-5.98,2.61-9.32,0-3.63-1.02-6.97-3.07-10.02-3.65-5.41-9.05-8.12-16.21-8.12l-1.14.03Z"/><path d="m1072.44,682.6l-.09-8.25-.09-3.67c0-.96.08-1.61.24-1.94.16-.33.49-.5.99-.5.76,0,1.14.6,1.14,1.79l-.03,1.99-.07,6.5-.11,10.46.11,10.9.07,7.65c0,.7-.07,1.18-.22,1.44-.15.25-.44.38-.88.38s-.77-.14-.93-.41-.25-.77-.25-1.49l.03-2.49.09-14.69v-5.44l-1.11-.04-5.71-.14-12.57.18.03,8.08.15,15.89h-17.96l.18-25.4-.07-6.71-.04-6.18-.07-1.7h17.96l-.03,1.53-.15,12.27c2,.12,5.17.18,9.52.18,4,0,7.29-.06,9.87-.18Z"/><path d="m1100.24,667.6c3.09,0,6.06.66,8.94,1.96,4.22,1.93,7.44,4.91,9.67,8.94,1.78,3.22,2.67,6.73,2.67,10.52,0,3.05-.67,6-2.02,8.85-2.01,4.26-5.15,7.49-9.4,9.7-3.12,1.62-6.41,2.43-9.84,2.43-3.63,0-7.07-.92-10.31-2.75-4.32-2.42-7.39-5.82-9.23-10.2-1.13-2.68-1.7-5.44-1.7-8.29,0-3.57.89-6.98,2.67-10.22,2.19-3.98,5.38-6.96,9.58-8.94,2.79-1.31,5.79-1.97,8.99-1.99Zm-2.31,1.96l-.18,19.07.15,15.85.03,3.57c.66.12,1.3.18,1.9.18,4.32,0,8.17-1.19,11.57-3.57,3.11-2.19,5.35-5,6.74-8.44.98-2.4,1.46-4.89,1.46-7.47,0-3.4-.82-6.56-2.46-9.49-2.01-3.59-4.84-6.24-8.5-7.94-2.73-1.29-5.62-1.93-8.64-1.93-.7,0-1.4.06-2.08.18Z"/><path d="m1144.34,668.8l-.12,6.12-.12,9.76.03,7.12.12,15.09,2.11.03,12.52-.21,2.28-.03c1.15,0,1.73.35,1.73,1.04,0,.61-.31.95-.94,1.01-.14.02-.59.04-1.35.06h-34.28l.09-11.13.06-6.83.06-7.73-.12-11.78.03-2.52h17.9Z"/><path d="m1166.46,668.8h15.41c4.02,0,7.05.2,9.08.59,5.02.96,9.07,3.63,12.16,8.03,2.42,3.46,3.63,7.27,3.63,11.43s-1.25,8.1-3.75,11.57c-3.01,4.2-6.93,6.81-11.78,7.82-1.25.25-2.36.41-3.34.47s-3.12.09-6.45.09h-14.88l.09-19.34-.18-20.65Zm17.93,1.88l-.18,23.55.18,12.69c2.62-.02,4.5-.12,5.64-.31s2.46-.6,3.94-1.25c3.5-1.5,6.24-3.93,8.23-7.27,1.74-2.87,2.61-5.98,2.61-9.32,0-3.63-1.02-6.97-3.07-10.02-3.65-5.41-9.05-8.12-16.21-8.12l-1.14.03Z"/><path d="m693.62,848.72v.82l.03,5.62v.73h-17.87l.03-1.79.15-20.6-.12-9.79-.03-6.65-.03-1.17h13.39c5.47,0,9.61.23,12.44.7s5.19,1.31,7.1,2.52c2.58,1.62,4.57,3.88,5.98,6.77,1.07,2.21,1.61,4.52,1.61,6.94,0,2.62-.61,5.12-1.82,7.5-1.45,2.85-3.49,5.04-6.14,6.58s-5.71,2.3-9.18,2.3c-1.29,0-3.13-.17-5.54-.5Zm.03-30.82v1.96l-.12,19.57.06,7.29c1.54.41,3.54.62,6.01.62,2.21,0,4.3-.44,6.27-1.32s3.64-2.12,5.01-3.72c2.32-2.71,3.49-5.87,3.49-9.46s-1.15-6.51-3.46-9.29c-1.64-1.97-3.76-3.41-6.36-4.31s-5.94-1.35-10.02-1.35h-.88Z"/><path d="m740.93,814.7c3.09,0,6.06.65,8.94,1.96,4.22,1.93,7.44,4.91,9.67,8.94,1.78,3.22,2.67,6.73,2.67,10.52,0,3.05-.67,6-2.02,8.85-2.01,4.26-5.15,7.49-9.4,9.7-3.12,1.62-6.41,2.43-9.84,2.43-3.63,0-7.07-.92-10.31-2.75-4.32-2.42-7.39-5.82-9.23-10.2-1.13-2.68-1.7-5.44-1.7-8.29,0-3.57.89-6.98,2.67-10.22,2.19-3.98,5.38-6.96,9.58-8.94,2.79-1.31,5.79-1.97,8.99-1.99Zm-2.31,1.96l-.18,19.07.15,15.85.03,3.57c.66.12,1.3.18,1.9.18,4.32,0,8.17-1.19,11.57-3.57,3.11-2.19,5.35-5,6.74-8.44.98-2.4,1.46-4.89,1.46-7.47,0-3.4-.82-6.56-2.46-9.49-2.01-3.59-4.84-6.24-8.5-7.94-2.73-1.29-5.62-1.93-8.64-1.93-.7,0-1.4.06-2.08.18Z"/><path d="m791.4,849.27c1.88,1.28,3.9,2.38,6.07,3.29,2.17.91,4.51,1.62,7,2.13.6.12.91.41.91.88,0,.64-.45.97-1.35.97-2.05,0-4.92-.9-8.63-2.7-3.08-1.5-6.61-3.83-10.59-6.97v1.2l.03,4.98v2.84h-17.84v-1.32l.06-9.55.09-11.43-.06-17.7h11.77c5.27,0,9.25.15,11.94.44,2.69.29,4.99.84,6.88,1.64,3.08,1.29,5.52,3.41,7.32,6.36,1.66,2.73,2.49,5.61,2.49,8.61,0,3.2-.93,6.22-2.78,9.05-2.98,4.55-7.42,6.97-13.31,7.27Zm-2.78-1.82l1.4.03c4.02,0,7.41-1.12,10.18-3.37,1.75-1.41,3.1-3.16,4.04-5.27.88-1.93,1.32-3.91,1.32-5.92,0-3.42-1.11-6.47-3.33-9.17-1.7-2.09-3.82-3.56-6.38-4.42s-6.15-1.32-10.79-1.38l-.26,19.63v5.3l.03,1.38c1.19,1.15,2.46,2.21,3.8,3.19Z"/><path d="m835.77,817.87l-.15,9.17-.09,8.7.09,20.16h-17.87l.18-23.35-.09-7.94-.09-6.74-3.87.09-5.54.12-.82.03c-.94,0-1.41-.35-1.41-1.05,0-.62.27-.98.82-1.05.16-.04.63-.07,1.44-.09h35.95c1.25.02,1.99.08,2.23.18.39.16.59.49.59,1,0,.66-.5,1-1.49,1l-2.55-.09-6.74-.12h-.59Z"/><path d="m868.55,828.74l-.06,7.09.18,18.72v1.35h-17.93l.23-21.77-.23-18.22h31.05c1.41,0,2.2.03,2.37.09.45.12.67.44.67.98,0,.67-.43,1.01-1.29,1.01h-.21l-14.68-.18-.12,9.08,3.19.03,10.25-.18,2.26-.03c.82,0,1.36.07,1.63.21s.4.41.4.82c0,.76-.64,1.14-1.93,1.14l-2.31-.06-13.48-.09Z"/><path d="m909.18,814.7c3.09,0,6.06.65,8.94,1.96,4.22,1.93,7.44,4.91,9.67,8.94,1.78,3.22,2.67,6.73,2.67,10.52,0,3.05-.67,6-2.02,8.85-2.01,4.26-5.15,7.49-9.4,9.7-3.12,1.62-6.41,2.43-9.84,2.43-3.63,0-7.07-.92-10.31-2.75-4.32-2.42-7.39-5.82-9.23-10.2-1.13-2.68-1.7-5.44-1.7-8.29,0-3.57.89-6.98,2.67-10.22,2.19-3.98,5.38-6.96,9.58-8.94,2.79-1.31,5.79-1.97,8.99-1.99Zm-2.31,1.96l-.18,19.07.15,15.85.03,3.57c.66.12,1.3.18,1.9.18,4.32,0,8.17-1.19,11.57-3.57,3.11-2.19,5.35-5,6.74-8.44.98-2.4,1.46-4.89,1.46-7.47,0-3.4-.82-6.56-2.46-9.49-2.01-3.59-4.84-6.24-8.5-7.94-2.73-1.29-5.62-1.93-8.64-1.93-.7,0-1.4.06-2.08.18Z"/><path d="m953.28,815.9l-.12,6.12-.12,9.76.03,7.12.12,15.09,2.11.03,12.52-.21,2.28-.03c1.15,0,1.73.35,1.73,1.04,0,.61-.31.95-.94,1.01-.14.02-.59.04-1.35.06h-34.28l.09-11.13.06-6.83.06-7.73-.12-11.78.03-2.52h17.9Z"/><path d="m993.33,815.9v2.05l-.18,16.05.18,21.88h-17.93l.18-23.94-.21-14.62.03-1.44h17.93Z"/><path d="m1019.58,814.7c3.09,0,6.06.65,8.94,1.96,4.22,1.93,7.44,4.91,9.67,8.94,1.78,3.22,2.67,6.73,2.67,10.52,0,3.05-.67,6-2.02,8.85-2.01,4.26-5.15,7.49-9.4,9.7-3.12,1.62-6.41,2.43-9.84,2.43-3.63,0-7.07-.92-10.31-2.75-4.32-2.42-7.39-5.82-9.23-10.2-1.13-2.68-1.7-5.44-1.7-8.29,0-3.57.89-6.98,2.67-10.22,2.19-3.98,5.38-6.96,9.58-8.94,2.79-1.31,5.79-1.97,8.99-1.99Zm-2.31,1.96l-.18,19.07.15,15.85.03,3.57c.66.12,1.3.18,1.9.18,4.32,0,8.17-1.19,11.57-3.57,3.11-2.19,5.35-5,6.74-8.44.98-2.4,1.46-4.89,1.46-7.47,0-3.4-.82-6.56-2.46-9.49-2.01-3.59-4.84-6.24-8.5-7.94-2.73-1.29-5.62-1.93-8.64-1.93-.7,0-1.4.06-2.08.18Z"/><path d="m1078.43,828.74c-.04.9-.06,1.99-.06,3.28v1.76l.21,20.21,9.93-.1,7.03-.08c1.15,0,1.73.35,1.73,1.04,0,.58-.29.91-.88.98-.14.02-.95.04-2.43.06h-33.28l.03-1.52.03-9.79.12-10.49-.23-18.19h31.05c1.39,0,2.18.03,2.37.09.45.12.67.44.67.98,0,.67-.43,1.01-1.29,1.01h-.21l-14.68-.18-.12,9.08,3.19.03,10.25-.18,2.26-.03c.82,0,1.36.07,1.63.21s.4.42.4.83c0,.77-.64,1.16-1.93,1.16l-2.31-.07-13.48-.11Z"/><path d="m1128.56,832.42l.61.94c3.94,6.27,6.67,10.55,8.19,12.83s3.78,5.52,6.79,9.7h-20.84l-10.14-16.49c-3.16,3.75-6.83,8.52-10.98,14.32-.78,1.07-1.37,1.8-1.76,2.17-.39.37-.78.56-1.17.56-.7,0-1.06-.32-1.06-.97,0-.25.07-.5.22-.75s.68-.94,1.6-2.1l1.03-1.26,10.96-13.81-14.04-21.67h20.57l8.86,14.7c2.09-2.56,5.07-6.49,8.92-11.8,1.13-1.58,1.87-2.55,2.21-2.91.34-.36.71-.54,1.1-.54.31,0,.59.11.82.32s.35.47.35.76c0,.37-.16.78-.48,1.23s-1.44,1.86-3.35,4.22l-8.4,10.54Z"/><path d="m1168.07,813.5l23.42,42.39h-20.32l-2.83-5.36h-9.81l-8.64-.03-1.46-.03-1.93,3.58c-.56,1.08-.96,1.74-1.19,2.01-.23.26-.51.39-.84.39-.67,0-1-.29-1-.88,0-.25.19-.73.57-1.42s1.71-2.97,4-6.84l17.74-29.85,2.29-3.96Zm-9.11,19.25l-5.12,8.61-4.09,7.09,8.74.12,8.77-.12-8.29-15.7Z"/><path d="m1234.75,814.53l6.38,21.83,2.9,9.67,2.6,8.76.35,1.11h-17.81l-5.61-20.71-12.11,18.19-12.41-17.29c-1.2,4.22-2.5,9.4-3.92,15.53-.51,2.34-.88,3.74-1.1,4.18-.22.44-.68.66-1.36.66-.86,0-1.29-.29-1.29-.88,0-.18.27-1.16.82-2.96l1.82-6.24,3.17-10.78,6.19-21.06,16.04,23.25,15.34-23.25Z"/></svg>