<?xml version="1.0" encoding="UTF-8"?><svg id="Layer_1" xmlns="http://www.w3.org/2000/svg" width="330.92" height="71.13" viewBox="0 0 330.92 71.13"><path d="m7.1,12.32c3.93-.62,9.07-1.15,15.61-1.15,8.04,0,13.93,1.77,17.67,4.95,3.46,2.83,5.52,7.15,5.52,12.45s-1.68,9.63-4.86,12.72c-4.3,4.33-11.31,6.54-19.26,6.54-2.43,0-4.67-.09-6.54-.53v23.85H7.1V12.32Zm8.13,28.7c1.78.44,4.02.62,6.73.62,9.81,0,15.8-4.5,15.8-12.72s-5.89-11.66-14.86-11.66c-3.55,0-6.26.26-7.67.62v23.14Z"/><path d="m94.69,49.41c0,15.81-11.59,22.7-22.53,22.7-12.25,0-21.69-8.48-21.69-21.99,0-14.31,9.91-22.7,22.43-22.7s21.78,8.92,21.78,21.99Zm-35.89.44c0,9.36,5.7,16.43,13.74,16.43s13.74-6.98,13.74-16.6c0-7.24-3.83-16.43-13.55-16.43s-13.93,8.48-13.93,16.6Z"/><path d="m104.6,41.72c0-5.03-.09-9.36-.37-13.34h7.2l.28,8.39h.37c2.06-5.74,7.01-9.36,12.53-9.36.93,0,1.59.09,2.34.27v7.33c-.84-.18-1.68-.26-2.8-.26-5.8,0-9.91,4.15-11.03,9.98-.19,1.06-.37,2.3-.37,3.62v22.79h-8.13v-29.41Z"/><path d="m146.86,16.11v12.28h11.78v5.92h-11.78v23.05c0,5.3,1.59,8.3,6.17,8.3,2.15,0,3.74-.26,4.77-.53l.37,5.83c-1.59.62-4.11,1.06-7.29,1.06-3.83,0-6.92-1.15-8.88-3.27-2.34-2.3-3.18-6.09-3.18-11.13v-23.32h-7.01v-5.92h7.01v-10.24l8.04-2.03Z"/><path d="m168.26,71.13v-36.83h-6.36v-5.92h6.36v-2.03c0-6.01,1.4-11.48,5.23-14.93,3.08-2.83,7.2-3.97,11.03-3.97,2.9,0,5.42.62,7.01,1.24l-1.12,6c-1.22-.53-2.9-.97-5.23-.97-7.01,0-8.79,5.83-8.79,12.36v2.3h10.94v5.92h-10.94v36.83h-8.13Z"/><path d="m233.98,49.41c0,15.81-11.59,22.7-22.53,22.7-12.25,0-21.69-8.48-21.69-21.99,0-14.31,9.91-22.7,22.43-22.7s21.78,8.92,21.78,21.99Zm-35.89.44c0,9.36,5.7,16.43,13.74,16.43s13.74-6.98,13.74-16.6c0-7.24-3.83-16.43-13.55-16.43s-13.93,8.48-13.93,16.6Z"/><path d="m243.89,8.43h8.23v62.71h-8.23V8.43Z"/><path d="m274.64,16.38c.09,2.65-1.96,4.77-5.23,4.77-2.9,0-4.95-2.12-4.95-4.77s2.15-4.86,5.14-4.86,5.05,2.12,5.05,4.86Zm-9.16,54.76V28.39h8.23v42.75h-8.23Z"/><path d="m327.83,49.41c0,15.81-11.59,22.7-22.53,22.7-12.25,0-21.69-8.48-21.69-21.99,0-14.31,9.91-22.7,22.43-22.7s21.78,8.92,21.78,21.99Zm-35.89.44c0,9.36,5.7,16.43,13.74,16.43s13.74-6.98,13.74-16.6c0-7.24-3.83-16.43-13.55-16.43s-13.93,8.48-13.93,16.6Z"/></svg>