<?xml version="1.0" encoding="UTF-8"?><svg id="Layer_1" xmlns="http://www.w3.org/2000/svg" width="433.22" height="78.26" viewBox="0 0 433.22 78.26"><path d="m5.47,12.38c2.74-.58,7.06-1.01,11.45-1.01,6.26,0,10.3,1.08,13.32,3.53,2.52,1.87,4.03,4.75,4.03,8.57,0,4.68-3.1,8.78-8.21,10.66v.14c4.61,1.15,10.01,4.97,10.01,12.17,0,4.18-1.66,7.34-4.1,9.72-3.38,3.1-8.86,4.54-16.78,4.54-4.32,0-7.63-.29-9.72-.58V12.38Zm6.26,19.87h5.69c6.62,0,10.51-3.46,10.51-8.14,0-5.69-4.32-7.92-10.66-7.92-2.88,0-4.54.22-5.54.43v15.62Zm0,23.26c1.22.22,3.02.29,5.26.29,6.48,0,12.46-2.38,12.46-9.43,0-6.62-5.69-9.36-12.53-9.36h-5.18v18.51Z"/><path d="m63.22,60.26l-.5-4.39h-.22c-1.94,2.74-5.69,5.18-10.66,5.18-7.06,0-10.66-4.97-10.66-10.01,0-8.42,7.49-13.03,20.95-12.96v-.72c0-2.88-.79-8.06-7.92-8.06-3.24,0-6.62,1.01-9.07,2.59l-1.44-4.18c2.88-1.87,7.06-3.1,11.45-3.1,10.66,0,13.25,7.27,13.25,14.26v13.03c0,3.02.14,5.98.58,8.35h-5.76Zm-.94-17.79c-6.91-.14-14.76,1.08-14.76,7.85,0,4.1,2.74,6.05,5.98,6.05,4.54,0,7.42-2.88,8.42-5.83.22-.65.36-1.37.36-2.02v-6.05Z"/><path d="m77.4,53.78c1.87,1.22,5.18,2.52,8.35,2.52,4.61,0,6.77-2.3,6.77-5.18,0-3.02-1.8-4.68-6.48-6.41-6.26-2.23-9.22-5.69-9.22-9.86,0-5.62,4.54-10.23,12.02-10.23,3.53,0,6.62,1.01,8.57,2.16l-1.58,4.61c-1.37-.86-3.89-2.02-7.13-2.02-3.74,0-5.83,2.16-5.83,4.75,0,2.88,2.09,4.18,6.62,5.91,6.05,2.3,9.15,5.33,9.15,10.51,0,6.12-4.75,10.44-13.03,10.44-3.82,0-7.34-.94-9.79-2.38l1.58-4.82Z"/><path d="m113.47,15.62c.07,2.16-1.51,3.89-4.03,3.89-2.23,0-3.82-1.73-3.82-3.89s1.66-3.96,3.96-3.96,3.89,1.73,3.89,3.96Zm-7.06,44.64V25.41h6.34v34.85h-6.34Z"/><path d="m147.75,58.97c-1.66.86-5.33,2.02-10.01,2.02-10.51,0-17.35-7.13-17.35-17.79s7.34-18.51,18.72-18.51c3.74,0,7.06.94,8.78,1.8l-1.44,4.9c-1.51-.86-3.89-1.66-7.34-1.66-7.99,0-12.31,5.9-12.31,13.18,0,8.06,5.18,13.03,12.1,13.03,3.6,0,5.98-.94,7.78-1.73l1.08,4.75Z"/><path d="m203.83,58.68c-2.3,1.15-6.91,2.3-12.82,2.3-13.68,0-23.98-8.64-23.98-24.55s10.3-25.49,25.35-25.49c6.05,0,9.86,1.3,11.52,2.16l-1.51,5.11c-2.38-1.15-5.76-2.02-9.79-2.02-11.38,0-18.94,7.27-18.94,20.02,0,11.88,6.84,19.51,18.65,19.51,3.82,0,7.71-.79,10.23-2.02l1.3,4.97Z"/><path d="m241.85,42.55c0,12.89-8.93,18.51-17.35,18.51-9.43,0-16.71-6.91-16.71-17.93,0-11.67,7.63-18.51,17.28-18.51s16.78,7.27,16.78,17.93Zm-27.65.36c0,7.63,4.39,13.39,10.58,13.39s10.58-5.69,10.58-13.54c0-5.91-2.95-13.39-10.44-13.39s-10.73,6.91-10.73,13.54Z"/><path d="m249.48,34.85c0-3.6-.07-6.55-.29-9.43h5.62l.36,5.76h.14c1.73-3.31,5.76-6.55,11.52-6.55,4.82,0,12.31,2.88,12.31,14.83v20.81h-6.34v-20.09c0-5.62-2.09-10.3-8.06-10.3-4.18,0-7.42,2.95-8.5,6.48-.29.79-.43,1.87-.43,2.95v20.95h-6.34v-25.42Z"/><path d="m296.42,15.4v10.01h9.07v4.82h-9.07v18.79c0,4.32,1.22,6.77,4.75,6.77,1.66,0,2.88-.22,3.67-.43l.29,4.75c-1.22.5-3.17.86-5.62.86-2.95,0-5.33-.94-6.84-2.66-1.8-1.87-2.45-4.97-2.45-9.07v-19.01h-5.4v-4.82h5.4v-8.35l6.19-1.66Z"/><path d="m315.36,43.99c.14,8.57,5.62,12.1,11.95,12.1,4.54,0,7.27-.79,9.65-1.8l1.08,4.54c-2.23,1.01-6.05,2.16-11.59,2.16-10.73,0-17.14-7.06-17.14-17.57s6.19-18.79,16.35-18.79c11.38,0,14.4,10.01,14.4,16.42,0,1.3-.14,2.3-.22,2.95h-24.48Zm18.58-4.54c.07-4.03-1.66-10.3-8.78-10.3-6.41,0-9.22,5.9-9.72,10.3h18.51Z"/><path d="m347.54,34.85c0-3.6-.07-6.55-.29-9.43h5.62l.36,5.76h.14c1.73-3.31,5.76-6.55,11.52-6.55,4.82,0,12.31,2.88,12.31,14.83v20.81h-6.34v-20.09c0-5.62-2.09-10.3-8.06-10.3-4.18,0-7.42,2.95-8.5,6.48-.29.79-.43,1.87-.43,2.95v20.95h-6.34v-25.42Z"/><path d="m394.48,15.4v10.01h9.07v4.82h-9.07v18.79c0,4.32,1.22,6.77,4.75,6.77,1.66,0,2.88-.22,3.67-.43l.29,4.75c-1.22.5-3.17.86-5.62.86-2.95,0-5.33-.94-6.84-2.66-1.8-1.87-2.45-4.97-2.45-9.07v-19.01h-5.4v-4.82h5.4v-8.35l6.19-1.66Z"/><path d="m409.46,53.78c1.87,1.22,5.18,2.52,8.35,2.52,4.61,0,6.77-2.3,6.77-5.18,0-3.02-1.8-4.68-6.48-6.41-6.26-2.23-9.22-5.69-9.22-9.86,0-5.62,4.54-10.23,12.02-10.23,3.53,0,6.62,1.01,8.57,2.16l-1.58,4.61c-1.37-.86-3.89-2.02-7.13-2.02-3.74,0-5.83,2.16-5.83,4.75,0,2.88,2.09,4.18,6.62,5.91,6.05,2.3,9.15,5.33,9.15,10.51,0,6.12-4.75,10.44-13.03,10.44-3.82,0-7.34-.94-9.79-2.38l1.58-4.82Z"/></svg>