<?xml version="1.0" encoding="UTF-8"?><svg id="Layer_1" xmlns="http://www.w3.org/2000/svg" width="431.85" height="78.26" viewBox="0 0 431.85 78.26"><path d="m5.47,12.31c3.02-.5,6.98-.94,12.02-.94,6.19,0,10.73,1.44,13.61,4.03,2.66,2.3,4.25,5.83,4.25,10.15s-1.3,7.85-3.74,10.37c-3.31,3.53-8.71,5.33-14.83,5.33-1.87,0-3.6-.07-5.04-.43v19.44h-6.26V12.31Zm6.26,23.4c1.37.36,3.1.5,5.18.5,7.56,0,12.17-3.67,12.17-10.37s-4.54-9.5-11.45-9.5c-2.74,0-4.82.22-5.9.5v18.87Z"/><path d="m72.94,42.55c0,12.89-8.93,18.51-17.35,18.51-9.43,0-16.71-6.91-16.71-17.93,0-11.67,7.63-18.51,17.28-18.51s16.78,7.27,16.78,17.93Zm-27.65.36c0,7.63,4.39,13.39,10.58,13.39s10.58-5.69,10.58-13.54c0-5.91-2.95-13.39-10.44-13.39s-10.73,6.91-10.73,13.54Z"/><path d="m80.57,36.29c0-4.1-.07-7.63-.29-10.87h5.54l.22,6.84h.29c1.58-4.68,5.4-7.63,9.65-7.63.72,0,1.22.07,1.8.22v5.98c-.65-.14-1.3-.22-2.16-.22-4.46,0-7.63,3.38-8.5,8.14-.14.86-.29,1.87-.29,2.95v18.58h-6.26v-23.98Z"/><path d="m113.11,15.4v10.01h9.07v4.82h-9.07v18.79c0,4.32,1.22,6.77,4.75,6.77,1.66,0,2.88-.22,3.67-.43l.29,4.75c-1.22.5-3.17.86-5.62.86-2.95,0-5.33-.94-6.84-2.66-1.8-1.87-2.45-4.97-2.45-9.07v-19.01h-5.4v-4.82h5.4v-8.35l6.19-1.66Z"/><path d="m129.6,60.26v-30.03h-4.9v-4.82h4.9v-1.66c0-4.9,1.08-9.36,4.03-12.17,2.38-2.3,5.54-3.24,8.5-3.24,2.23,0,4.18.5,5.4,1.01l-.86,4.9c-.94-.43-2.23-.79-4.03-.79-5.4,0-6.77,4.75-6.77,10.08v1.87h8.42v4.82h-8.42v30.03h-6.26Z"/><path d="m180.22,42.55c0,12.89-8.93,18.51-17.35,18.51-9.43,0-16.71-6.91-16.71-17.93,0-11.67,7.63-18.51,17.28-18.51s16.78,7.27,16.78,17.93Zm-27.65.36c0,7.63,4.39,13.39,10.58,13.39s10.58-5.69,10.58-13.54c0-5.91-2.95-13.39-10.44-13.39s-10.73,6.91-10.73,13.54Z"/><path d="m187.85,9.14h6.34v51.12h-6.34V9.14Z"/><path d="m211.54,15.62c.07,2.16-1.51,3.89-4.03,3.89-2.23,0-3.82-1.73-3.82-3.89s1.66-3.96,3.96-3.96,3.89,1.73,3.89,3.96Zm-7.06,44.64V25.41h6.34v34.85h-6.34Z"/><path d="m252.5,42.55c0,12.89-8.93,18.51-17.35,18.51-9.43,0-16.71-6.91-16.71-17.93,0-11.67,7.63-18.51,17.28-18.51s16.78,7.27,16.78,17.93Zm-27.65.36c0,7.63,4.39,13.39,10.58,13.39s10.58-5.69,10.58-13.54c0-5.91-2.95-13.39-10.44-13.39s-10.73,6.91-10.73,13.54Z"/><path d="m300.38,37.51h-18.87v17.5h21.03v5.26h-27.29V11.73h26.21v5.26h-19.95v15.34h18.87v5.18Z"/><path d="m313.05,25.41l4.97,7.49c1.3,1.94,2.38,3.74,3.53,5.69h.22c1.15-2.09,2.3-3.89,3.46-5.76l4.9-7.42h6.84l-11.88,16.85,12.24,18h-7.2l-5.11-7.85c-1.37-2.02-2.52-3.96-3.74-6.05h-.14c-1.15,2.09-2.38,3.96-3.67,6.05l-5.04,7.85h-6.98l12.38-17.79-11.81-17.07h7.06Z"/><path d="m362.37,60.26l-.5-4.39h-.22c-1.94,2.74-5.69,5.18-10.66,5.18-7.06,0-10.66-4.97-10.66-10.01,0-8.42,7.49-13.03,20.95-12.96v-.72c0-2.88-.79-8.06-7.92-8.06-3.24,0-6.62,1.01-9.07,2.59l-1.44-4.18c2.88-1.87,7.06-3.1,11.45-3.1,10.66,0,13.25,7.27,13.25,14.26v13.03c0,3.02.14,5.98.58,8.35h-5.76Zm-.94-17.79c-6.91-.14-14.76,1.08-14.76,7.85,0,4.1,2.74,6.05,5.98,6.05,4.54,0,7.42-2.88,8.42-5.83.22-.65.36-1.37.36-2.02v-6.05Z"/><path d="m377.42,34.85c0-3.6-.07-6.55-.29-9.43h5.54l.29,5.62h.22c1.94-3.31,5.18-6.41,10.95-6.41,4.75,0,8.35,2.88,9.87,6.99h.14c1.08-1.94,2.45-3.46,3.89-4.54,2.09-1.58,4.39-2.45,7.7-2.45,4.61,0,11.45,3.02,11.45,15.12v20.52h-6.19v-19.73c0-6.7-2.45-10.73-7.56-10.73-3.6,0-6.41,2.67-7.49,5.76-.29.86-.5,2.02-.5,3.17v21.53h-6.19v-20.88c0-5.54-2.45-9.58-7.27-9.58-3.96,0-6.84,3.17-7.85,6.34-.36.94-.5,2.02-.5,3.1v21.03h-6.19v-25.42Z"/></svg>