<?xml version="1.0" encoding="UTF-8"?><svg id="Layer_1" xmlns="http://www.w3.org/2000/svg" width="312.33" height="78.26" viewBox="0 0 312.33 78.26"><path d="m5.77,15.57c2.88-.58,7.44-1.01,12.06-1.01,6.6,0,10.85,1.08,14.04,3.53,2.66,1.87,4.25,4.75,4.25,8.57,0,4.68-3.26,8.78-8.65,10.66v.14c4.86,1.15,10.55,4.97,10.55,12.17,0,4.18-1.75,7.34-4.33,9.72-3.57,3.1-9.33,4.54-17.68,4.54-4.55,0-8.04-.29-10.24-.58V15.57Zm6.6,19.87h5.99c6.98,0,11.08-3.46,11.08-8.14,0-5.69-4.55-7.92-11.23-7.92-3.04,0-4.78.22-5.84.43v15.62Zm0,23.26c1.29.22,3.19.29,5.54.29,6.83,0,13.13-2.38,13.13-9.43,0-6.62-5.99-9.36-13.2-9.36h-5.46v18.51Z"/><path d="m66.62,63.46l-.53-4.39h-.23c-2.05,2.74-5.99,5.18-11.23,5.18-7.44,0-11.23-4.97-11.23-10.01,0-8.42,7.89-13.03,22.08-12.96v-.72c0-2.88-.83-8.06-8.35-8.06-3.42,0-6.98,1.01-9.56,2.59l-1.52-4.18c3.04-1.87,7.44-3.1,12.07-3.1,11.23,0,13.96,7.27,13.96,14.26v13.03c0,3.02.15,5.98.61,8.35h-6.07Zm-.99-17.79c-7.28-.14-15.56,1.08-15.56,7.85,0,4.1,2.88,6.05,6.3,6.05,4.78,0,7.82-2.88,8.88-5.83.23-.65.38-1.37.38-2.02v-6.05Z"/><path d="m81.57,56.98c1.97,1.22,5.46,2.52,8.8,2.52,4.86,0,7.13-2.3,7.13-5.18,0-3.02-1.9-4.68-6.83-6.41-6.6-2.23-9.71-5.69-9.71-9.86,0-5.62,4.78-10.23,12.67-10.23,3.72,0,6.98,1.01,9.03,2.16l-1.67,4.61c-1.44-.86-4.1-2.02-7.51-2.02-3.95,0-6.15,2.16-6.15,4.75,0,2.88,2.2,4.18,6.98,5.91,6.37,2.3,9.64,5.33,9.64,10.51,0,6.12-5.01,10.44-13.73,10.44-4.02,0-7.74-.94-10.32-2.38l1.67-4.82Z"/><path d="m119.59,18.81c.08,2.16-1.59,3.89-4.25,3.89-2.35,0-4.02-1.73-4.02-3.89s1.75-3.96,4.17-3.96,4.1,1.73,4.1,3.96Zm-7.44,44.64V28.61h6.68v34.85h-6.68Z"/><path d="m155.71,62.16c-1.75.86-5.62,2.02-10.55,2.02-11.08,0-18.29-7.13-18.29-17.79s7.74-18.51,19.73-18.51c3.95,0,7.44.94,9.26,1.8l-1.52,4.9c-1.59-.86-4.1-1.66-7.74-1.66-8.42,0-12.98,5.9-12.98,13.18,0,8.06,5.46,13.03,12.75,13.03,3.79,0,6.3-.94,8.2-1.73l1.14,4.75Z"/><path d="m184.7,63.46l-12.98-48.53h6.98l6.07,24.55c1.52,6.05,2.88,12.1,3.79,16.78h.15c.83-4.83,2.43-10.58,4.17-16.85l6.83-24.48h6.91l6.22,24.63c1.44,5.76,2.81,11.52,3.57,16.63h.15c1.06-5.33,2.5-10.73,4.1-16.78l6.75-24.48h6.75l-14.49,48.53h-6.91l-6.45-25.27c-1.59-6.19-2.66-10.94-3.34-15.84h-.15c-.91,4.82-2.05,9.58-3.95,15.84l-7.28,25.27h-6.91Z"/><path d="m241.16,47.18c.15,8.57,5.92,12.1,12.6,12.1,4.78,0,7.66-.79,10.17-1.8l1.14,4.54c-2.35,1.01-6.37,2.16-12.22,2.16-11.31,0-18.06-7.06-18.06-17.57s6.53-18.79,17.23-18.79c11.99,0,15.18,10.01,15.18,16.42,0,1.3-.15,2.3-.23,2.95h-25.8Zm19.58-4.54c.08-4.03-1.75-10.3-9.26-10.3-6.75,0-9.71,5.9-10.24,10.3h19.5Z"/><path d="m274.77,63.46c.15-2.38.3-5.9.3-9V12.33h6.6v21.89h.15c2.35-3.89,6.6-6.41,12.52-6.41,9.11,0,15.56,7.2,15.48,17.79,0,12.46-8.27,18.65-16.47,18.65-5.31,0-9.56-1.94-12.29-6.55h-.23l-.3,5.76h-5.77Zm6.91-13.97c0,.79.15,1.58.3,2.3,1.29,4.39,5.16,7.42,10.02,7.42,6.98,0,11.15-5.4,11.15-13.39,0-6.98-3.79-12.96-10.93-12.96-4.55,0-8.8,2.95-10.17,7.78-.15.72-.38,1.58-.38,2.59v6.26Z"/></svg>